<svg width="16" height="16" viewBox="0 0 16 16" fill="none" xmlns="http://www.w3.org/2000/svg"><path d="M1.84 16C1.728 16 1.63 15.958 1.546 15.874C1.462 15.79 1.42 15.692 1.42 15.58C1.42 15.468 1.427 15.391 1.441 15.349L6.649 1.762C6.761 1.454 6.985 1.3 7.321 1.3H8.749C9.085 1.3 9.309 1.454 9.421 1.762L14.608 15.349L14.65 15.58C14.65 15.692 14.608 15.79 14.524 15.874C14.44 15.958 14.342 16 14.23 16H13.159C13.005 16 12.886 15.965 12.802 15.895C12.718 15.811 12.662 15.727 12.634 15.643L11.479 12.661H4.591L3.436 15.643C3.408 15.727 3.345 15.811 3.247 15.895C3.163 15.965 3.051 16 2.911 16H1.84ZM10.87 10.855L8.035 3.4L5.2 10.855H10.87Z" fill="black"/></svg>
