<svg width="16" height="16" viewBox="0 0 16 16" fill="none" xmlns="http://www.w3.org/2000/svg"><path d="M3.31 16C3.17 16 3.051 15.958 2.953 15.874C2.869 15.776 2.827 15.657 2.827 15.517V1.804C2.827 1.65 2.869 1.531 2.953 1.447C3.051 1.349 3.17 1.3 3.31 1.3H9.064C10.562 1.3 11.689 1.657 12.445 2.371C13.201 3.085 13.579 4.023 13.579 5.185C13.579 5.969 13.397 6.62 13.033 7.138C12.683 7.656 12.263 8.034 11.773 8.272C12.361 8.566 12.858 9.021 13.264 9.637C13.67 10.253 13.873 10.96 13.873 11.758C13.873 12.542 13.691 13.256 13.327 13.9C12.977 14.544 12.452 15.055 11.752 15.433C11.052 15.811 10.212 16 9.232 16H3.31ZM8.749 7.516C9.631 7.516 10.303 7.313 10.765 6.907C11.241 6.501 11.479 5.934 11.479 5.206C11.479 4.492 11.248 3.946 10.786 3.568C10.324 3.19 9.645 3.001 8.749 3.001H4.885V7.516H8.749ZM8.959 14.299C9.841 14.299 10.527 14.061 11.017 13.585C11.521 13.109 11.773 12.5 11.773 11.758C11.773 10.988 11.521 10.372 11.017 9.91C10.527 9.434 9.841 9.196 8.959 9.196H4.885V14.299H8.959Z" fill="black"/></svg>
