<svg width="16" height="16" viewBox="0 0 16 16" fill="none" xmlns="http://www.w3.org/2000/svg"><path d="M8.119 15.71C6.243 15.71 4.815 15.206 3.835 14.198C2.869 13.19 2.351 11.797 2.281 10.019C2.267 9.641 2.26 9.025 2.26 8.171C2.26 7.303 2.267 6.673 2.281 6.281C2.351 4.517 2.876 3.131 3.856 2.123C4.836 1.101 6.257 0.589999 8.119 0.589999C9.365 0.589999 10.422 0.813999 11.29 1.262C12.158 1.696 12.816 2.27 13.264 2.984C13.712 3.698 13.957 4.461 13.999 5.273V5.315C13.999 5.427 13.95 5.525 13.852 5.609C13.768 5.679 13.67 5.714 13.558 5.714H12.403C12.123 5.714 11.948 5.553 11.878 5.231C11.64 4.181 11.213 3.446 10.597 3.026C9.981 2.592 9.155 2.375 8.119 2.375C5.711 2.375 4.465 3.712 4.381 6.386C4.367 6.764 4.36 7.345 4.36 8.129C4.36 8.913 4.367 9.508 4.381 9.914C4.465 12.588 5.711 13.925 8.119 13.925C9.155 13.925 9.981 13.715 10.597 13.295C11.227 12.861 11.654 12.119 11.878 11.069C11.92 10.887 11.983 10.761 12.067 10.691C12.151 10.621 12.263 10.586 12.403 10.586H13.558C13.684 10.586 13.789 10.628 13.873 10.712C13.971 10.782 14.013 10.88 13.999 11.006C13.957 11.832 13.712 12.602 13.264 13.316C12.816 14.03 12.158 14.611 11.29 15.059C10.422 15.493 9.365 15.71 8.119 15.71Z" fill="black"/></svg>
